<svg width="18" height="18" viewBox="0 0 18 18" fill="none" xmlns="http://www.w3.org/2000/svg">
<path d="M8.6066 1.53549L5.77817 4.36392L7.19239 5.77813L10.0208 2.9497C11.1875 1.78298 13.0967 1.78298 14.2635 2.9497C15.4302 4.11643 15.4302 6.02562 14.2635 7.19234L11.435 10.0208L12.8492 11.435L15.6777 8.60656C17.6293 6.65494 17.6293 3.4871 15.6777 1.53549C13.7261 -0.416126 10.5582 -0.416126 8.6066 1.53549ZM10.0208 11.435L7.19239 14.2634C6.02566 15.4301 4.11647 15.4301 2.94975 14.2634C1.78302 13.0967 1.78302 11.1875 2.94975 10.0208L5.77817 7.19234L4.36396 5.77813L1.53553 8.60656C-0.416081 10.5582 -0.416081 13.726 1.53553 15.6776C3.48715 17.6292 6.65499 17.6292 8.6066 15.6776L11.435 12.8492L10.0208 11.435ZM5.07107 10.7279L10.7279 5.07102L12.1421 6.48524L6.48528 12.1421L5.07107 10.7279Z" fill="white"/>
</svg>
